<svg width="353" height="71" viewBox="0 0 353 71" fill="none" xmlns="http://www.w3.org/2000/svg">
<path d="M33.93 43.32H15.59L12.65 52H0.12L17.9 2.86H31.76L49.54 52H36.87L33.93 43.32ZM30.85 34.08L24.76 16.09L18.74 34.08H30.85ZM46.9713 32.54C46.9713 28.6667 47.7647 25.2133 49.3513 22.18C50.9847 19.1467 53.1547 16.79 55.8613 15.11C58.6147 13.3833 61.6013 12.52 64.8213 12.52C67.2947 12.52 69.5113 12.9633 71.4713 13.85C73.4313 14.69 75.018 15.88 76.2313 17.42V12.94H88.2013V70.62H76.2313V47.1C74.878 48.7333 73.2213 50.04 71.2613 51.02C69.348 52 67.1547 52.49 64.6813 52.49C61.508 52.49 58.568 51.65 55.8613 49.97C53.1547 48.29 50.9847 45.9333 49.3513 42.9C47.7647 39.8667 46.9713 36.4133 46.9713 32.54ZM76.2313 32.47C76.2313 30.37 75.8113 28.62 74.9713 27.22C74.178 25.7733 73.128 24.7 71.8213 24C70.5147 23.2533 69.138 22.88 67.6913 22.88C66.2913 22.88 64.938 23.2533 63.6313 24C62.3247 24.7 61.2513 25.7733 60.4113 27.22C59.5713 28.6667 59.1513 30.44 59.1513 32.54C59.1513 34.64 59.5713 36.4133 60.4113 37.86C61.2513 39.26 62.3247 40.3333 63.6313 41.08C64.938 41.78 66.2913 42.13 67.6913 42.13C69.0913 42.13 70.4447 41.78 71.7513 41.08C73.1047 40.3333 74.178 39.2367 74.9713 37.79C75.8113 36.3433 76.2313 34.57 76.2313 32.47ZM129.831 12.94V52H117.861V46.68C116.648 48.4067 114.991 49.8067 112.891 50.88C110.838 51.9067 108.551 52.42 106.031 52.42C103.044 52.42 100.408 51.7667 98.1211 50.46C95.8344 49.1067 94.0611 47.17 92.8011 44.65C91.5411 42.13 90.9111 39.1667 90.9111 35.76V12.94H102.811V34.15C102.811 36.7633 103.488 38.7933 104.841 40.24C106.194 41.6867 108.014 42.41 110.301 42.41C112.634 42.41 114.478 41.6867 115.831 40.24C117.184 38.7933 117.861 36.7633 117.861 34.15V12.94H129.831ZM130.449 32.4C130.449 28.3867 131.196 24.8633 132.689 21.83C134.229 18.7967 136.306 16.4633 138.919 14.83C141.532 13.1967 144.449 12.38 147.669 12.38C150.422 12.38 152.826 12.94 154.879 14.06C156.979 15.18 158.589 16.65 159.709 18.47V12.94H171.679V52H159.709V46.47C158.542 48.29 156.909 49.76 154.809 50.88C152.756 52 150.352 52.56 147.599 52.56C144.426 52.56 141.532 51.7433 138.919 50.11C136.306 48.43 134.229 46.0733 132.689 43.04C131.196 39.96 130.449 36.4133 130.449 32.4ZM159.709 32.47C159.709 29.4833 158.869 27.1267 157.189 25.4C155.556 23.6733 153.549 22.81 151.169 22.81C148.789 22.81 146.759 23.6733 145.079 25.4C143.446 27.08 142.629 29.4133 142.629 32.4C142.629 35.3867 143.446 37.7667 145.079 39.54C146.759 41.2667 148.789 42.13 151.169 42.13C153.549 42.13 155.556 41.2667 157.189 39.54C158.869 37.8133 159.709 35.4567 159.709 32.47ZM210.089 2.86V12.45H197.069V52H185.099V12.45H172.079V2.86H210.089ZM222.466 19.45C223.866 17.3033 225.616 15.6233 227.716 14.41C229.816 13.15 232.15 12.52 234.716 12.52V25.19H231.426C228.44 25.19 226.2 25.8433 224.706 27.15C223.213 28.41 222.466 30.65 222.466 33.87V52H210.496V12.94H222.466V19.45ZM232.458 32.4C232.458 28.3867 233.204 24.8633 234.698 21.83C236.238 18.7967 238.314 16.4633 240.928 14.83C243.541 13.1967 246.458 12.38 249.678 12.38C252.431 12.38 254.834 12.94 256.888 14.06C258.988 15.18 260.598 16.65 261.718 18.47V12.94H273.688V52H261.718V46.47C260.551 48.29 258.918 49.76 256.818 50.88C254.764 52 252.361 52.56 249.608 52.56C246.434 52.56 243.541 51.7433 240.928 50.11C238.314 48.43 236.238 46.0733 234.698 43.04C233.204 39.96 232.458 36.4133 232.458 32.4ZM261.718 32.47C261.718 29.4833 260.878 27.1267 259.198 25.4C257.564 23.6733 255.558 22.81 253.178 22.81C250.798 22.81 248.768 23.6733 247.088 25.4C245.454 27.08 244.638 29.4133 244.638 32.4C244.638 35.3867 245.454 37.7667 247.088 39.54C248.768 41.2667 250.798 42.13 253.178 42.13C255.558 42.13 257.564 41.2667 259.198 39.54C260.878 37.8133 261.718 35.4567 261.718 32.47ZM274.367 32.47C274.367 28.41 275.184 24.8633 276.817 21.83C278.497 18.7967 280.807 16.4633 283.747 14.83C286.734 13.1967 290.141 12.38 293.967 12.38C298.867 12.38 302.951 13.6633 306.217 16.23C309.531 18.7967 311.701 22.4133 312.727 27.08H299.987C298.914 24.0933 296.837 22.6 293.757 22.6C291.564 22.6 289.814 23.4633 288.507 25.19C287.201 26.87 286.547 29.2967 286.547 32.47C286.547 35.6433 287.201 38.0933 288.507 39.82C289.814 41.5 291.564 42.34 293.757 42.34C296.837 42.34 298.914 40.8467 299.987 37.86H312.727C311.701 42.4333 309.531 46.0267 306.217 48.64C302.904 51.2533 298.821 52.56 293.967 52.56C290.141 52.56 286.734 51.7433 283.747 50.11C280.807 48.4767 278.497 46.1433 276.817 43.11C275.184 40.0767 274.367 36.53 274.367 32.47ZM337.4 52L325.5 35.62V52H313.53V0.199999H325.5V28.83L337.33 12.94H352.1L335.86 32.54L352.24 52H337.4Z" fill="white"/>
</svg>
